<svg width="50" height="50" viewBox="0 0 50 50" fill="none" xmlns="http://www.w3.org/2000/svg">
<path d="M34.1119 27.1108L31.8314 24.7672L36.7773 19.8228C37.2886 19.2607 37.5675 18.5164 37.5549 17.747C37.5423 16.9776 37.2394 16.2434 36.7099 15.6992L33.958 12.8809L34.1504 14.295C34.2651 15.1405 34.1827 16.0018 33.91 16.8082C33.6373 17.6145 33.1821 18.3427 32.582 18.9328L29.3297 22.1566L29.2719 22.0972L26.5488 24.8958L29.041 27.5163L31.36 29.9094C32.9 31.8043 33.6945 34.2228 33.5874 36.6892C33.4802 39.1557 32.4792 41.4918 30.7811 43.2382C29.0829 44.9846 26.8105 46.0151 24.4106 46.1269C22.0106 46.2387 19.6568 45.4239 17.8118 43.8426L6.6404 32.3618C5.55211 31.2447 4.74173 29.8746 4.27787 28.3674C3.81401 26.8602 3.71033 25.2604 3.97559 23.7033C4.24086 22.1463 4.86726 20.6778 5.80177 19.4222C6.73629 18.1667 7.9514 17.161 9.34425 16.4903V12.248C7.29634 12.9141 5.43479 14.0775 3.9173 15.6399C1.40829 18.2338 0 21.7426 0 25.4001C0 29.0576 1.40829 32.5664 3.9173 35.1603L15.1176 46.6708C17.6947 48.9389 21.0096 50.124 24.3999 49.9894C27.7903 49.8548 31.0064 48.4104 33.4055 45.9449C35.8047 43.4793 37.2102 40.1741 37.3411 36.6898C37.4721 33.2056 36.3189 29.7988 34.1119 27.1504V27.1108Z" fill="white"/>
<path d="M46.1107 15.5511L34.9104 4.03074C32.386 1.44922 28.9697 0 25.4084 0C21.8472 0 18.4309 1.44922 15.9065 4.03074C13.3945 6.62504 11.9844 10.136 11.9844 13.7959C11.9844 17.4558 13.3945 20.9667 15.9065 23.561L17.9464 25.6476L13.1353 30.4535C12.6239 31.0156 12.3451 31.7599 12.3577 32.5293C12.3702 33.2987 12.6732 34.033 13.2026 34.5771L15.9546 37.3954L15.7621 35.9813C15.6486 35.1429 15.7288 34.2888 15.9963 33.4882C16.2638 32.6876 16.711 31.963 17.3017 31.3731L23.3349 25.4399L20.8138 22.8589L20.7176 22.9578L18.6296 20.8218C17.0785 18.9275 16.2753 16.504 16.3788 14.0305C16.4822 11.557 17.4847 9.21332 19.1882 7.46266C20.8917 5.71201 23.1722 4.68173 25.579 4.57544C27.9859 4.46914 30.344 5.29457 32.1873 6.88859L43.3876 18.409C45.1739 20.2609 46.1761 22.763 46.1761 25.3707C46.1761 27.9783 45.1739 30.4804 43.3876 32.3324C42.5999 33.1552 41.6742 33.8252 40.6549 34.3101L40.5875 38.493C42.7888 37.7782 44.7744 36.494 46.3537 34.7637C47.9331 33.0334 49.0533 30.9149 49.6069 28.6117C50.1604 26.3084 50.1287 23.8976 49.5148 21.6106C48.9009 19.3235 47.7254 17.237 46.1011 15.5511H46.1107Z" fill="white"/>
</svg>
