<svg width="196" height="50" viewBox="0 0 196 50" fill="none" xmlns="http://www.w3.org/2000/svg">
<path d="M34.1119 27.1111L31.8314 24.7675L36.7773 19.8231C37.2886 19.261 37.5675 18.5167 37.5549 17.7473C37.5423 16.9779 37.2394 16.2436 36.7099 15.6995L33.958 12.8812L34.1504 14.2953C34.2651 15.1407 34.1827 16.0021 33.91 16.8084C33.6373 17.6147 33.1821 18.343 32.582 18.9331L29.3297 22.1568L29.2719 22.0975L26.5488 24.896L29.041 27.5166L31.36 29.9096C32.9 31.8046 33.6945 34.223 33.5874 36.6895C33.4802 39.156 32.4792 41.4921 30.7811 43.2385C29.0829 44.9849 26.8105 46.0153 24.4106 46.1272C22.0106 46.239 19.6568 45.4242 17.8118 43.8429L6.6404 32.362C5.55211 31.245 4.74173 29.8748 4.27787 28.3677C3.81401 26.8605 3.71033 25.2607 3.97559 23.7036C4.24086 22.1465 4.86726 20.6781 5.80177 19.4225C6.73629 18.1669 7.9514 17.1613 9.34425 16.4906V12.2483C7.29634 12.9143 5.43479 14.0778 3.9173 15.6402C1.40829 18.2341 0 21.7429 0 25.4004C0 29.0578 1.40829 32.5667 3.9173 35.1606L15.1176 46.6711C17.6947 48.9391 21.0096 50.1243 24.3999 49.9897C27.7903 49.8551 31.0064 48.4107 33.4055 45.9451C35.8047 43.4795 37.2102 40.1744 37.3411 36.6901C37.4721 33.2058 36.3189 29.7991 34.1119 27.1507V27.1111Z" fill="white"/>
<path d="M46.1107 15.5511L34.9104 4.03074C32.386 1.44922 28.9697 0 25.4084 0C21.8472 0 18.4309 1.44922 15.9065 4.03074C13.3945 6.62504 11.9844 10.136 11.9844 13.7959C11.9844 17.4558 13.3945 20.9667 15.9065 23.561L17.9464 25.6476L13.1353 30.4535C12.6239 31.0156 12.3451 31.7599 12.3577 32.5293C12.3702 33.2987 12.6732 34.033 13.2026 34.5771L15.9546 37.3954L15.7621 35.9813C15.6486 35.1429 15.7288 34.2888 15.9963 33.4882C16.2638 32.6876 16.711 31.963 17.3017 31.3731L23.3349 25.4399L20.8138 22.8589L20.7176 22.9578L18.6296 20.8218C17.0785 18.9275 16.2753 16.504 16.3788 14.0305C16.4822 11.557 17.4847 9.21332 19.1882 7.46266C20.8917 5.71201 23.1722 4.68173 25.579 4.57544C27.9859 4.46914 30.344 5.29457 32.1873 6.88859L43.3876 18.409C45.1739 20.2609 46.1761 22.763 46.1761 25.3707C46.1761 27.9783 45.1739 30.4804 43.3876 32.3324C42.5999 33.1552 41.6742 33.8252 40.6549 34.3101L40.5875 38.493C42.7888 37.7782 44.7744 36.494 46.3537 34.7637C47.9331 33.0334 49.0533 30.9149 49.6069 28.6117C50.1604 26.3084 50.1287 23.8976 49.5148 21.6106C48.9009 19.3235 47.7254 17.237 46.1011 15.5511H46.1107Z" fill="white"/>
<path d="M76.8274 12.6999C73.3774 12.6999 70.5992 10.1452 70.5992 6.34078C70.5992 2.53631 73.3774 0 76.8274 0C78.97 0 80.459 0.955711 81.5303 2.29738L80.3319 3.05092C79.5693 2.05845 78.28 1.36005 76.8274 1.36005C74.1763 1.36005 72.1608 3.41851 72.1608 6.34078C72.1608 9.24467 74.1763 11.3399 76.8274 11.3399C78.28 11.3399 79.4785 10.6231 80.0777 10.0166V7.51704H75.9195V6.15698H81.5848V10.5863C80.459 11.8545 78.8066 12.6999 76.8274 12.6999Z" fill="white"/>
<path d="M85.3415 12.461H83.9797V0.202169H85.3415V12.461Z" fill="white"/>
<path d="M91.8894 12.6816C89.2202 12.6816 87.5497 10.5863 87.5497 8.01327C87.5497 5.4402 89.2202 3.36337 91.8894 3.36337C94.5587 3.36337 96.2292 5.4402 96.2292 8.01327C96.2292 10.5863 94.5587 12.6816 91.8894 12.6816ZM91.8894 11.4502C93.7597 11.4502 94.7947 9.8328 94.7947 8.01327C94.7947 6.21212 93.7597 4.59476 91.8894 4.59476C90.0192 4.59476 88.966 6.21212 88.966 8.01327C88.966 9.8328 90.0192 11.4502 91.8894 11.4502Z" fill="white"/>
<path d="M99.8111 10.0533C100.283 10.8253 101.355 11.4502 102.426 11.4502C104.205 11.4502 105.259 9.99821 105.259 8.03165C105.259 6.06509 104.205 4.59476 102.426 4.59476C101.355 4.59476 100.283 5.25641 99.8111 6.02833V10.0533ZM99.8111 12.461H98.4493V0.202169H99.8111V4.92559C100.519 3.9515 101.572 3.36337 102.771 3.36337C105.059 3.36337 106.675 5.20127 106.675 8.03165C106.675 10.9172 105.059 12.6816 102.771 12.6816C101.536 12.6816 100.465 12.0383 99.8111 11.1377V12.461Z" fill="white"/>
<path d="M115.739 12.461H114.377V11.4502C113.651 12.2588 112.652 12.6816 111.472 12.6816C109.983 12.6816 108.403 11.6707 108.403 9.7409C108.403 7.75596 109.983 6.81863 111.472 6.81863C112.671 6.81863 113.669 7.20459 114.377 8.03165V6.43267C114.377 5.23803 113.433 4.55801 112.162 4.55801C111.109 4.55801 110.256 4.94397 109.475 5.7894L108.839 4.83369C109.783 3.84122 110.909 3.36337 112.344 3.36337C114.196 3.36337 115.739 4.2088 115.739 6.35915V12.461ZM111.962 11.6891C112.925 11.6891 113.851 11.3215 114.377 10.5863V8.91384C113.851 8.17868 112.925 7.8111 111.962 7.8111C110.691 7.8111 109.802 8.61978 109.802 9.75928C109.802 10.8804 110.691 11.6891 111.962 11.6891Z" fill="white"/>
<path d="M119.831 12.461H118.469V0.202169H119.831V12.461Z" fill="white"/>
<path d="M76.664 31.0606C72.869 31.0606 70 28.4875 70 24.7198C70 20.9337 72.869 18.3791 76.664 18.3791C79.8416 18.3791 81.4395 20.2537 82.1658 21.9446L79.0064 23.4333C78.6977 22.4776 77.7535 21.6505 76.664 21.6505C74.9027 21.6505 73.7224 23.0106 73.7224 24.7198C73.7224 26.4291 74.9027 27.7891 76.664 27.7891C77.7535 27.7891 78.6977 26.9621 79.0064 26.0064L82.1658 27.4767C81.4577 29.1124 79.8416 31.0606 76.664 31.0606Z" fill="white"/>
<path d="M87.5636 31.0606C84.4586 31.0606 82.6428 28.8735 82.6428 26.3923C82.6428 23.9112 84.4586 21.7424 87.5636 21.7424C90.6868 21.7424 92.5025 23.9112 92.5025 26.3923C92.5025 28.8735 90.6868 31.0606 87.5636 31.0606ZM87.5636 28.1383C88.5804 28.1383 89.1433 27.3848 89.1433 26.3923C89.1433 25.4182 88.5804 24.6647 87.5636 24.6647C86.5649 24.6647 86.002 25.4182 86.002 26.3923C86.002 27.3848 86.5649 28.1383 87.5636 28.1383Z" fill="white"/>
<path d="M102.928 30.8401H99.6595V25.9329C99.6595 25.0139 99.1692 24.6647 98.3884 24.6647C97.6439 24.6647 97.2626 25.0507 96.9903 25.3631V30.8401H93.7218V21.963H96.9903V22.9738C97.4987 22.3857 98.4611 21.7424 100.004 21.7424C102.038 21.7424 102.928 22.9922 102.928 24.536V30.8401Z" fill="white"/>
<path d="M108.31 31.0606C106.694 31.0606 104.951 30.4909 104.007 29.7006L105.314 27.4767C106.004 28.0281 107.493 28.5978 108.474 28.5978C109.146 28.5978 109.345 28.4324 109.345 28.2119C109.345 27.3664 104.37 28.4508 104.37 24.775C104.37 23.176 105.75 21.7424 108.292 21.7424C109.763 21.7424 111.07 22.2019 112.087 22.8819L110.889 25.0323C110.344 24.5728 109.327 24.1133 108.31 24.1133C107.838 24.1133 107.493 24.2971 107.493 24.4993C107.493 25.2344 112.469 24.3155 112.469 28.0097C112.469 29.7741 110.907 31.0606 108.31 31.0606Z" fill="white"/>
<path d="M117.975 31.0606C115.196 31.0606 113.054 29.2227 113.054 26.3923C113.054 23.5803 115.196 21.7424 117.975 21.7424C119.972 21.7424 121.207 22.6614 121.697 23.4149L119.591 25.4182C119.318 24.9955 118.81 24.6647 118.12 24.6647C117.194 24.6647 116.395 25.2528 116.395 26.3923C116.395 27.5318 117.194 28.1383 118.12 28.1383C118.81 28.1383 119.318 27.7708 119.591 27.3664L121.697 29.3881C121.207 30.1233 119.972 31.0606 117.975 31.0606Z" fill="white"/>
<path d="M124.402 21.3197C123.385 21.3197 122.568 20.4926 122.568 19.4634C122.568 18.4342 123.385 17.6071 124.402 17.6071C125.419 17.6071 126.236 18.4342 126.236 19.4634C126.236 20.4926 125.419 21.3197 124.402 21.3197ZM126.036 30.8401H122.767V21.963H126.036V30.8401Z" fill="white"/>
<path d="M132.178 31.0606C129.073 31.0606 127.257 28.8735 127.257 26.3923C127.257 23.9112 129.073 21.7424 132.178 21.7424C135.301 21.7424 137.117 23.9112 137.117 26.3923C137.117 28.8735 135.301 31.0606 132.178 31.0606ZM132.178 28.1383C133.195 28.1383 133.758 27.3848 133.758 26.3923C133.758 25.4182 133.195 24.6647 132.178 24.6647C131.18 24.6647 130.617 25.4182 130.617 26.3923C130.617 27.3848 131.18 28.1383 132.178 28.1383Z" fill="white"/>
<path d="M147.524 30.8401H144.256V29.8476C143.748 30.4173 142.785 31.0606 141.242 31.0606C139.208 31.0606 138.337 29.8292 138.337 28.3037V21.963H141.605V26.8886C141.605 27.7891 142.077 28.1383 142.876 28.1383C143.602 28.1383 143.984 27.7524 144.256 27.4399V21.963H147.524V30.8401Z" fill="white"/>
<path d="M152.907 31.0606C151.291 31.0606 149.548 30.4909 148.604 29.7006L149.911 27.4767C150.601 28.0281 152.09 28.5978 153.071 28.5978C153.743 28.5978 153.942 28.4324 153.942 28.2119C153.942 27.3664 148.967 28.4508 148.967 24.775C148.967 23.176 150.347 21.7424 152.889 21.7424C154.36 21.7424 155.667 22.2019 156.684 22.8819L155.486 25.0323C154.941 24.5728 153.924 24.1133 152.907 24.1133C152.435 24.1133 152.09 24.2971 152.09 24.4993C152.09 25.2344 157.065 24.3155 157.065 28.0097C157.065 29.7741 155.504 31.0606 152.907 31.0606Z" fill="white"/>
<path d="M167.456 30.8401H164.188V25.9329C164.188 25.0139 163.697 24.6647 162.917 24.6647C162.172 24.6647 161.791 25.0507 161.518 25.3631V30.8401H158.25V21.963H161.518V22.9738C162.027 22.3857 162.989 21.7424 164.533 21.7424C166.566 21.7424 167.456 22.9922 167.456 24.536V30.8401Z" fill="white"/>
<path d="M173.565 31.0606C170.823 31.0606 168.68 29.3146 168.68 26.3923C168.68 23.8193 170.623 21.7424 173.456 21.7424C176.034 21.7424 178.014 23.6171 178.014 26.7415V27.4216H172.058C172.239 27.9913 172.875 28.5427 173.946 28.5427C174.436 28.5427 175.526 28.3038 175.962 27.9178L177.305 29.9579C176.434 30.7114 174.872 31.0606 173.565 31.0606ZM174.909 25.3263C174.818 24.9404 174.509 24.2604 173.456 24.2604C172.457 24.2604 172.13 24.922 172.021 25.3263H174.909Z" fill="white"/>
<path d="M182.698 31.0606C181.082 31.0606 179.339 30.4909 178.394 29.7006L179.702 27.4767C180.392 28.0281 181.881 28.5978 182.861 28.5978C183.533 28.5978 183.733 28.4324 183.733 28.2119C183.733 27.3664 178.757 28.4508 178.757 24.775C178.757 23.176 180.137 21.7424 182.68 21.7424C184.15 21.7424 185.458 22.2019 186.475 22.8819L185.276 25.0323C184.731 24.5728 183.715 24.1133 182.698 24.1133C182.226 24.1133 181.881 24.2971 181.881 24.4993C181.881 25.2344 186.856 24.3155 186.856 28.0097C186.856 29.7741 185.294 31.0606 182.698 31.0606Z" fill="white"/>
<path d="M191.599 31.0606C189.983 31.0606 188.24 30.4909 187.296 29.7006L188.603 27.4767C189.293 28.0281 190.782 28.5978 191.763 28.5978C192.435 28.5978 192.634 28.4324 192.634 28.2119C192.634 27.3664 187.659 28.4508 187.659 24.775C187.659 23.176 189.039 21.7424 191.581 21.7424C193.052 21.7424 194.359 22.2019 195.376 22.8819L194.178 25.0323C193.633 24.5728 192.616 24.1133 191.599 24.1133C191.127 24.1133 190.782 24.2971 190.782 24.4993C190.782 25.2344 195.758 24.3155 195.758 28.0097C195.758 29.7741 194.196 31.0606 191.599 31.0606Z" fill="white"/>
<path d="M72.2194 47.7306H70V40.0076H73.9113C75.6253 40.0076 76.5482 41.2118 76.5482 42.6591C76.5482 44.0949 75.6253 45.2991 73.9113 45.2991H72.2194V47.7306ZM73.6257 43.2612C73.9992 43.2612 74.2959 43.0644 74.2959 42.6591C74.2959 42.2423 73.9992 42.0455 73.6257 42.0455H72.2194V43.2612H73.6257Z" fill="white"/>
<path d="M79.2082 47.7306H77.2306V42.1381H79.2082V42.7518C79.5378 42.3465 80.23 41.976 80.8343 41.976V43.9675C80.7354 43.9328 80.5706 43.9096 80.3838 43.9096C79.9663 43.9096 79.428 44.0254 79.2082 44.3033V47.7306Z" fill="white"/>
<path d="M84.1265 47.8695C82.2477 47.8695 81.149 46.4917 81.149 44.9285C81.149 43.3654 82.2477 41.9991 84.1265 41.9991C86.0163 41.9991 87.1149 43.3654 87.1149 44.9285C87.1149 46.4917 86.0163 47.8695 84.1265 47.8695ZM84.1265 46.0285C84.7418 46.0285 85.0824 45.5538 85.0824 44.9285C85.0824 44.3149 84.7418 43.8401 84.1265 43.8401C83.5222 43.8401 83.1816 44.3149 83.1816 44.9285C83.1816 45.5538 83.5222 46.0285 84.1265 46.0285Z" fill="white"/>
<path d="M88.8415 41.7328C88.2262 41.7328 87.7318 41.2118 87.7318 40.5634C87.7318 39.915 88.2262 39.3939 88.8415 39.3939C89.4568 39.3939 89.9512 39.915 89.9512 40.5634C89.9512 41.2118 89.4568 41.7328 88.8415 41.7328ZM87.622 50C86.8199 50 86.5672 49.8958 86.1387 49.6179L86.6112 48.0779C86.8309 48.2516 86.9628 48.2979 87.2704 48.2979C87.633 48.2979 87.8527 48.02 87.8527 47.4874V42.1381H89.8303V47.4874C89.8303 48.9232 89.1601 50 87.622 50Z" fill="white"/>
<path d="M93.5249 47.8695C91.8659 47.8695 90.5695 46.7695 90.5695 44.9285C90.5695 43.3075 91.7451 41.9991 93.459 41.9991C95.0192 41.9991 96.2167 43.1802 96.2167 45.1485V45.5769H92.613C92.7229 45.9359 93.1074 46.2832 93.7557 46.2832C94.0523 46.2832 94.7115 46.1327 94.9752 45.8896L95.7882 47.1748C95.2609 47.6495 94.316 47.8695 93.5249 47.8695ZM94.338 44.257C94.283 44.0138 94.0963 43.5854 93.459 43.5854C92.8547 43.5854 92.657 44.0022 92.5911 44.257H94.338Z" fill="white"/>
<path d="M99.5125 47.8695C97.8315 47.8695 96.535 46.7117 96.535 44.9285C96.535 43.157 97.8315 41.9991 99.5125 41.9991C100.721 41.9991 101.468 42.5781 101.765 43.0528L100.49 44.3149C100.325 44.0486 100.018 43.8401 99.6004 43.8401C99.04 43.8401 98.5566 44.2107 98.5566 44.9285C98.5566 45.6464 99.04 46.0285 99.6004 46.0285C100.018 46.0285 100.325 45.7969 100.49 45.5422L101.765 46.8159C101.468 47.279 100.721 47.8695 99.5125 47.8695Z" fill="white"/>
<path d="M104.643 47.8695C103.467 47.8695 102.819 47.279 102.819 46.1096V43.9444H101.94V42.1381H102.819V40.6097H104.797V42.1381H105.873V43.9444H104.797V45.5075C104.797 45.7969 104.972 46.0285 105.236 46.0285C105.412 46.0285 105.588 45.9706 105.632 45.9243L105.983 47.499C105.774 47.6958 105.313 47.8695 104.643 47.8695Z" fill="white"/>
<path d="M115.297 47.7306H109.309V45.9127C112.66 43.4233 112.979 43.1338 112.979 42.5549C112.979 42.1844 112.605 41.9528 112.133 41.9528C111.353 41.9528 110.759 42.2539 110.199 42.7518L108.991 41.2002C109.837 40.2508 111.067 39.8918 112.089 39.8918C113.99 39.8918 115.231 41.0034 115.231 42.5549C115.231 43.6086 114.66 44.477 112.913 45.6927H115.297V47.7306Z" fill="white"/>
<path d="M117.146 47.8695C116.509 47.8695 115.97 47.3022 115.97 46.6306C115.97 45.959 116.509 45.3917 117.146 45.3917C117.783 45.3917 118.322 45.959 118.322 46.6306C118.322 47.3022 117.783 47.8695 117.146 47.8695Z" fill="white"/>
<path d="M122.051 47.8695C119.865 47.8695 118.799 45.9706 118.799 43.8749C118.799 41.7791 119.865 39.8918 122.051 39.8918C124.237 39.8918 125.303 41.7791 125.303 43.8749C125.303 45.9706 124.237 47.8695 122.051 47.8695ZM122.051 45.8085C122.754 45.8085 123.073 45.1833 123.073 43.8749C123.073 42.5665 122.754 41.9528 122.051 41.9528C121.348 41.9528 121.029 42.5665 121.029 43.8749C121.029 45.1833 121.348 45.8085 122.051 45.8085Z" fill="white"/>
</svg>
